# xmcd
#
# Track frame offsets:
#	150
#	14947
#	29310
#	45762
#	61727
#	78895
#	95170
#	112635
#	126420
#	141897
#	158130
#	169705
#	182297
#	195865
#	211445
#	225770
#
# Disc length: 3201 seconds
#
# Revision: 1
# Processed by: cddbd v1.5.2PL0 Copyright (c) Steve Scherf et al.
# Submitted via: EasyCDDAExtractor 15.3.0.1
#
DISCID=bd0c7f10
DTITLE=Selena - 16 Super Exitos Originales
DYEAR=1990
DGENRE=Latin
TTITLE0=Estoy Contigo
TTITLE1=Sentimientos
TTITLE2=Acuerdate De Mi
TTITLE3=Tu No Sabes
TTITLE4=Costumbres
TTITLE5=Siempre
TTITLE6=Dame Un Beso
TTITLE7=Yo Fui Aquella
TTITLE8=Cariño, Cariño Mio
TTITLE9=Dulce Amor
TTITLE10=Quiero Estar Contigo
TTITLE11=Terco Corazon
TTITLE12=Dime
TTITLE13=Ya Se Va
TTITLE14=Cien Años
TTITLE15=Quiero
EXTD=
EXTT0=
EXTT1=
EXTT2=
EXTT3=
EXTT4=
EXTT5=
EXTT6=
EXTT7=
EXTT8=
EXTT9=
EXTT10=
EXTT11=
EXTT12=
EXTT13=
EXTT14=
EXTT15=
PLAYORDER=
